<svg width="141" height="40" viewBox="0 0 141 40" fill="none" xmlns="http://www.w3.org/2000/svg">
<g clip-path="url(#clip0_10614_21350)">
<path d="M45.3568 19.0491C45.3568 12.2491 50.0432 7.70856 56.7568 7.70856C61.9027 7.70856 66.0703 10.341 67.3135 15.6329H64.1297C63.2324 11.7302 60.6 9.23829 56.7514 9.23829C51.8054 9.23829 48.7676 13.4059 48.7676 18.6383C48.7676 23.8707 51.573 28.1842 57.0973 28.1842C61.8108 28.1842 64.8487 25.1734 65.6324 20.6329H67.5135C66.6162 26.5626 62.5946 30.3248 56.4919 30.3248C49.4919 30.3248 45.3568 25.3464 45.3568 19.0437V19.0491ZM68.7189 29.8113C69.7892 29.1194 69.9351 28.1032 69.9351 26.0491V11.2113C69.9351 9.47613 69.7351 8.5518 68.8649 7.88694V7.77343L73.0595 7.28153L73.0865 7.39505C72.9405 8.26532 72.8865 8.93018 72.8865 11.2113V18.9032C73.7838 16.9086 75.6054 15.2869 78.3243 15.2869C81.0432 15.2869 82.8649 16.8167 82.8649 20.7518V26.0437C82.8649 28.0978 83.0108 29.1086 83.9946 29.8059V29.9194H78.8487V29.8059C79.773 29.114 79.9189 28.0978 79.9189 26.0437V20.8059C79.9189 18.1734 78.9351 17.0437 77.027 17.0437C74.8 17.0437 73.3243 18.7788 72.8919 20.8329V26.0383C72.8919 28.0923 73.0378 29.1032 74.0757 29.8005V29.914H68.7243V29.8005L68.7189 29.8113ZM85.4 26.568C85.4 23.9356 87.4541 22.9788 91.0432 21.941C93.7622 21.1572 95.1243 20.7842 95.1514 18.9302C95.1514 17.395 94.1676 16.5896 92.4054 16.5896C90.4649 16.5896 88.7027 17.6869 88.6757 20.4059H85.9297C86.1622 17.0491 89.227 15.2599 92.6703 15.2599C95.6487 15.2599 98.0216 16.5356 98.0216 20.0329V26.3086C98.0216 27.9302 98.5135 28.5626 99.3838 28.5626C99.7892 28.5626 100.108 28.4491 100.427 28.1842V29.2545C99.8487 29.8059 99.0973 30.1518 98.0865 30.1518C96.4973 30.1518 95.1946 29.1086 95.1946 26.5626V26.2167C94.4432 28.4167 92.5892 30.2923 89.6378 30.2923C87.1784 30.2923 85.4162 29.0491 85.4162 26.5626L85.4 26.568ZM90.5514 28.4491C93.2703 28.4491 95.1514 26.0167 95.1514 22.8383V21.3626C94.6865 22.1734 93.5027 22.5194 91.7946 23.0978C89.4811 23.8491 88.2649 24.4869 88.2649 26.195C88.2649 27.7842 89.3081 28.4491 90.5514 28.4491ZM101.703 29.8113C102.714 29.1194 102.886 28.1032 102.886 26.0491V19.6545C102.886 17.4869 102.714 16.5896 101.703 15.8653V15.7788H106.243C105.897 16.5302 105.838 17.4869 105.838 19.6545V19.941C106.33 17.8869 108.238 15.4275 111.768 15.4005V17.9734C107.573 17.8275 105.838 19.941 105.838 22.6329V26.1626C105.838 28.1896 105.984 29.141 107.108 29.8383V29.9248H101.697V29.8113H101.703ZM115.73 25.3572V17.1734H112.751V15.7842H115.73V12.0221L118.476 9.90856H118.681V15.7788H123.335V17.168H118.681V25.2978C118.681 27.6978 119.605 28.3356 120.935 28.3356C122.265 28.3356 123.249 27.6113 123.946 26.2545L124.265 27.3248C123.454 29.1194 121.832 30.1896 119.865 30.1896C117.551 30.1896 115.73 29.0599 115.73 25.3572ZM125.524 26.568C125.524 23.9356 127.578 22.9788 131.168 21.941C133.886 21.1572 135.249 20.7842 135.276 18.9302C135.276 17.395 134.292 16.5896 132.53 16.5896C130.589 16.5896 128.827 17.6869 128.8 20.4059H126.054C126.286 17.0491 129.351 15.2599 132.795 15.2599C135.773 15.2599 138.146 16.5356 138.146 20.0329V26.3086C138.146 27.9302 138.638 28.5626 139.508 28.5626C139.914 28.5626 140.232 28.4491 140.551 28.1842V29.2545C139.973 29.8059 139.222 30.1518 138.211 30.1518C136.622 30.1518 135.319 29.1086 135.319 26.5626V26.2167C134.568 28.4167 132.714 30.2923 129.762 30.2923C127.303 30.2923 125.541 29.0491 125.541 26.5626L125.524 26.568ZM130.676 28.4491C133.395 28.4491 135.276 26.0167 135.276 22.8383V21.3626C134.811 22.1734 133.627 22.5194 131.919 23.0978C129.605 23.8491 128.389 24.4869 128.389 26.195C128.389 27.7842 129.432 28.4491 130.676 28.4491ZM9.68108 3.98424V14.8221L12.0919 16.2167V2.59505L9.68108 3.98964V3.98424ZM16.5676 0.00585938L14.4054 1.25451V17.5518L16.5676 18.8005V0.00585938ZM4.95135 6.71397V12.0978L7.36216 13.4869V5.32478L4.95135 6.71397ZM0 19.5518L9.38378 24.9788L11.7946 23.5896L0.00540541 16.768V19.5518H0ZM0.0108108 11.595V14.0923L14.1135 22.2545L16.2811 21.0059L0.0108108 11.595ZM0 25.0113L4.65946 27.7086L7.07027 26.3194L0 22.2221V25.0059V25.0113ZM27.3405 36.0167V25.1788L24.9297 23.7842V37.4059L27.3405 36.0113V36.0167ZM20.4487 39.995L22.6108 38.7464V22.4491L20.4487 21.2005V39.995ZM32.0649 33.2869V27.9032L29.6541 26.514V34.6761L32.0649 33.2869ZM18.6108 30.2545L9.22703 35.6815L6.81622 34.2923L18.6108 27.4707V30.2545ZM18.6054 22.2978V24.795L4.5027 32.9572L2.33514 31.7086L18.6054 22.2978ZM18.6162 35.714L13.9568 38.4059L11.5459 37.0167L18.6162 32.9248V35.7086V35.714ZM28.1027 3.98424L18.7081 9.38964V12.1734L30.5135 5.37343L28.1027 3.97883V3.98424ZM34.9892 7.97343L32.827 6.71937L18.7027 14.8491V17.3464L34.9892 7.96802V7.97343ZM23.3784 1.2491L18.7135 3.93559V6.71937L25.7892 2.6437L23.3784 1.2491Z" fill="#25413C"/>
</g>
<defs>
<clipPath id="clip0_10614_21350">
<rect width="140.541" height="40" fill="white"/>
</clipPath>
</defs>
</svg>
