<svg width="789" height="900" viewBox="0 0 789 900" fill="none" xmlns="http://www.w3.org/2000/svg">
<path d="M218.307 89.5377V333.455L272.67 364.842V58.2725L218.307 89.6594V89.5377ZM373.596 0L324.839 28.1022V394.891L373.596 422.993V0ZM111.652 150.973V272.141L166.015 303.406V119.708L111.652 150.973ZM0 439.903L211.603 562.044L265.966 530.779L0.121891 377.251V439.903H0ZM0.243782 260.827V317.032L318.257 500.73L367.135 472.628L0.243782 260.827ZM0 562.774L105.07 623.479L159.433 592.214L0 500V562.652V562.774ZM616.524 810.462V566.545L562.161 535.158V841.727L616.524 810.341V810.462ZM461.113 900L509.87 871.898V505.11L461.113 477.007V900ZM723.057 749.027V627.859L668.694 596.594V780.292L723.057 749.027ZM419.67 680.779L208.068 802.92L153.704 771.654L419.67 618.127V680.779ZM419.549 501.703V557.908L101.535 741.606L52.6569 713.504L419.549 501.703ZM419.792 803.65L314.722 864.234L260.359 832.968L419.792 740.876V803.528V803.65ZM633.711 89.5377L421.865 211.192V273.844L688.074 120.803L633.711 89.4161V89.5377ZM789 179.319L740.244 151.095L421.743 334.063V390.268L789 179.197V179.319ZM527.178 27.9805L421.986 88.4428V151.095L581.542 59.3674L527.178 27.9805Z" fill="#16332F"/>
</svg>
